<svg id="visual" viewBox="0 0 1349 620" width="1349" height="620" xmlns="http://www.w3.org/2000/svg" xmlns:xlink="http://www.w3.org/1999/xlink" version="1.1"><rect x="0" y="0" width="1349" height="620" fill="#ececec"></rect><path d="M0 462L8.3 460.5C16.7 459 33.3 456 50 449.3C66.7 442.7 83.3 432.3 100 435.2C116.7 438 133.3 454 150 451.2C166.7 448.3 183.3 426.7 200 425.7C216.7 424.7 233.3 444.3 250 454.2C266.7 464 283.3 464 300 462.5C316.7 461 333.3 458 350 456C366.7 454 383.3 453 400 453.8C416.7 454.7 433.3 457.3 450 454.8C466.7 452.3 483.3 444.7 500 446.2C516.7 447.7 533.3 458.3 550 455.2C566.7 452 583.3 435 600 434.3C616.7 433.7 633.3 449.3 649.8 453.5C666.3 457.7 682.7 450.3 699.2 449.3C715.7 448.3 732.3 453.7 749 456C765.7 458.3 782.3 457.7 799 455.2C815.7 452.7 832.3 448.3 849 442.7C865.7 437 882.3 430 899 429C915.7 428 932.3 433 949 440.5C965.7 448 982.3 458 999 451.5C1015.7 445 1032.3 422 1049 411.2C1065.7 400.3 1082.3 401.7 1099 412.8C1115.7 424 1132.3 445 1149 454.5C1165.7 464 1182.3 462 1199 454.7C1215.7 447.3 1232.3 434.7 1249 434.3C1265.7 434 1282.3 446 1299 449.8C1315.7 453.7 1332.3 449.3 1340.7 447.2L1349 445L1349 621L1340.7 621C1332.3 621 1315.7 621 1299 621C1282.3 621 1265.7 621 1249 621C1232.3 621 1215.7 621 1199 621C1182.3 621 1165.7 621 1149 621C1132.3 621 1115.7 621 1099 621C1082.3 621 1065.7 621 1049 621C1032.3 621 1015.7 621 999 621C982.3 621 965.7 621 949 621C932.3 621 915.7 621 899 621C882.3 621 865.7 621 849 621C832.3 621 815.7 621 799 621C782.3 621 765.7 621 749 621C732.3 621 715.7 621 699.2 621C682.7 621 666.3 621 649.8 621C633.3 621 616.7 621 600 621C583.3 621 566.7 621 550 621C533.3 621 516.7 621 500 621C483.3 621 466.7 621 450 621C433.3 621 416.7 621 400 621C383.3 621 366.7 621 350 621C333.3 621 316.7 621 300 621C283.3 621 266.7 621 250 621C233.3 621 216.7 621 200 621C183.3 621 166.7 621 150 621C133.3 621 116.7 621 100 621C83.3 621 66.7 621 50 621C33.3 621 16.7 621 8.3 621L0 621Z" fill="#304296" stroke-linecap="round" stroke-linejoin="miter"></path></svg>