<svg id="visual" viewBox="0 0 1349 620" width="1349" height="620" xmlns="http://www.w3.org/2000/svg" xmlns:xlink="http://www.w3.org/1999/xlink" version="1.1"><rect x="0" y="0" width="1349" height="620" fill="#ececec"></rect><path d="M343 0L346.2 3.8C349.3 7.7 355.7 15.3 370.2 23C384.7 30.7 407.3 38.3 401.3 46C395.3 53.7 360.7 61.3 366.7 69C372.7 76.7 419.3 84.3 421.3 92C423.3 99.7 380.7 107.3 359.3 115C338 122.7 338 130.3 341.3 138C344.7 145.7 351.3 153.3 355.8 161C360.3 168.7 362.7 176.3 360.8 184C359 191.7 353 199.3 358.3 207C363.7 214.7 380.3 222.3 377 230C373.7 237.7 350.3 245.3 357.2 253C364 260.7 401 268.3 402.3 276C403.7 283.7 369.3 291.3 360.5 298.8C351.7 306.3 368.3 313.7 370.8 321.2C373.3 328.7 361.7 336.3 356.5 344C351.3 351.7 352.7 359.3 358.2 367C363.7 374.7 373.3 382.3 385.7 390C398 397.7 413 405.3 415 413C417 420.7 406 428.3 389.7 436C373.3 443.7 351.7 451.3 365.8 459C380 466.7 430 474.3 453.3 482C476.7 489.7 473.3 497.3 449.2 505C425 512.7 380 520.3 359.5 528C339 535.7 343 543.3 359 551C375 558.7 403 566.3 403.7 574C404.3 581.7 377.7 589.3 369 597C360.3 604.7 369.7 612.3 374.3 616.2L379 620L0 620L0 616.2C0 612.3 0 604.7 0 597C0 589.3 0 581.7 0 574C0 566.3 0 558.7 0 551C0 543.3 0 535.7 0 528C0 520.3 0 512.7 0 505C0 497.3 0 489.7 0 482C0 474.3 0 466.7 0 459C0 451.3 0 443.7 0 436C0 428.3 0 420.7 0 413C0 405.3 0 397.7 0 390C0 382.3 0 374.7 0 367C0 359.3 0 351.7 0 344C0 336.3 0 328.7 0 321.2C0 313.7 0 306.3 0 298.8C0 291.3 0 283.7 0 276C0 268.3 0 260.7 0 253C0 245.3 0 237.7 0 230C0 222.3 0 214.7 0 207C0 199.3 0 191.7 0 184C0 176.3 0 168.7 0 161C0 153.3 0 145.7 0 138C0 130.3 0 122.7 0 115C0 107.3 0 99.7 0 92C0 84.3 0 76.7 0 69C0 61.3 0 53.7 0 46C0 38.3 0 30.7 0 23C0 15.3 0 7.7 0 3.8L0 0Z" fill="#304296" stroke-linecap="round" stroke-linejoin="miter"></path></svg>